<?xml version="1.0" standalone="no"?><!DOCTYPE svg PUBLIC "-//W3C//DTD SVG 1.1//EN" "http://www.w3.org/Graphics/SVG/1.1/DTD/svg11.dtd"><svg class="icon" width="200px" height="200.00px" viewBox="0 0 1024 1024" version="1.1" xmlns="http://www.w3.org/2000/svg"><path fill="#ffffff" d="M853.333 512A341.333 341.333 0 0 1 512 853.333 341.333 341.333 0 0 1 170.667 512 341.333 341.333 0 0 1 512 170.667c32.427 0 64 4.693 93.867 13.226l66.986-66.986A419.072 419.072 0 0 0 512 85.333 426.667 426.667 0 0 0 85.333 512 426.667 426.667 0 0 0 512 938.667 426.667 426.667 0 0 0 938.667 512m-601.174-81.92l-60.16 60.587 192 192L896 256l-60.16-60.587L469.333 561.92l-131.84-131.84z"  /></svg>